<?xml version="1.0" encoding="utf-8"?>
<!-- Generator: Adobe Illustrator 24.3.0, SVG Export Plug-In . SVG Version: 6.00 Build 0)  -->
<svg version="1.1" id="Layer_1" xmlns="http://www.w3.org/2000/svg" xmlns:xlink="http://www.w3.org/1999/xlink" x="0px" y="0px"
	 viewBox="0 0 792 648" style="enable-background:new 0 0 792 648;" xml:space="preserve" width="100px" height="100px">
<style type="text/css">
	.st0{fill:#3B75EA;}
	.st1{fill-rule:evenodd;clip-rule:evenodd;fill:#3B75EA;stroke:#FFFFFF;stroke-miterlimit:10;}
	.st2{fill:#07296D;}
	.st3{fill:#FFFFFF;}
	.st4{fill-rule:evenodd;clip-rule:evenodd;fill:#FFFFFF;}
</style>
<g>
	<path class="st0" d="M126.67,594.21l-0.11-116.99L80.09,594.25l-10.33,0.01l-44.6-115.89l0.11,115.76l-14.19,0.19l-0.13-131.35
		l20.49-0.02l43.72,113.61l44.2-113.7l20.67-0.02l0.13,131.35L126.67,594.21z"/>
	<path class="st0" d="M156.73,545.67c-0.03-31,19.21-52.38,46.18-52.41c26.97-0.02,46.78,21.15,46.81,51.97
		c0.03,31.35-19.56,52.73-46.53,52.76C176.22,598.02,156.76,576.67,156.73,545.67z M236.59,545.59
		c-0.02-22.77-14.75-41.49-33.49-41.47c-19.09,0.02-33.26,18.77-33.24,41.54c0.02,22.77,14.23,41.49,33.32,41.47
		C221.92,587.11,236.61,568.36,236.59,545.59z"/>
	<path class="st0" d="M264.31,594.08l-0.09-97.02l12.78-0.01l0.2,23.12c6.29-17.34,19.06-26.99,31.85-27l0.01,12.61
		c-10.68-0.52-31.69,10.71-31.66,46.44l0.04,41.85L264.31,594.08z"/>
	<path class="st0" d="M362.29,594.51c0,0-3.68,1.05-9.46,1.06c-15.06,0.01-23.83-8.21-23.85-30.1l-0.06-59.54l-11.56,0.01
		l-0.01-8.93l11.56-0.01l-0.02-23.64l13.14-0.01l0.02,23.64l17.34-0.02l0.01,8.93l-17.34,0.02l0.06,58.67
		c0.02,15.06,4.57,20.48,13.85,20.48c4.03,0,6.31-0.36,6.31-0.36L362.29,594.51z"/>
	<path class="st0" d="M443.77,572.54c-6.29,15.07-18.36,25.24-34.48,25.25c-24.87,0.02-43.28-22.03-43.3-52.15
		c-0.03-30.47,18.16-52.56,43.21-52.58c16.11-0.02,28.03,10.13,34.35,25.19l0.33-21.37l12.08-0.01l0.09,94.74
		c0.03,30.3-19.75,44.15-43.56,44.18c-23.82,0.02-36.79-12.75-39.96-29.73l12.96-0.19c2.11,12.96,12.28,21,26.81,20.99
		c13.84-0.01,31.52-7.21,31.49-35.06L443.77,572.54z M443.57,545.57c-0.02-24.35-14.23-42.02-32.44-42
		c-18.39,0.02-32.2,19.47-32.18,42.06c0.02,22.42,13.88,42.02,32.26,42C429.43,587.61,443.59,569.73,443.57,545.57z"/>
	<path class="st0" d="M560.97,593.79l-12.61,0.01l-0.54-20.14c-6.47,14.37-18.02,24.01-33.6,24.03
		c-24.87,0.02-43.28-22.38-43.31-52.67c-0.03-30.12,18.16-52.03,43.21-52.05c15.58-0.01,27.15,9.26,33.65,23.44l0.51-19.62
		l12.61-0.01L560.97,593.79z M548.32,544.94c-0.02-23.64-14.05-40.79-32.26-40.77c-18.39,0.02-32.03,18.77-32.01,40.84
		c0.02,22.06,13.7,41.49,32.09,41.47C534.34,586.46,548.34,568.58,548.32,544.94z"/>
	<path class="st0" d="M653.54,572.33c-6.29,15.07-18.36,25.24-34.48,25.25c-24.87,0.02-43.28-22.03-43.31-52.14
		c-0.03-30.48,18.16-52.56,43.21-52.58c16.11-0.01,28.03,10.13,34.35,25.19l0.33-21.37l12.09-0.01l0.09,94.74
		c0.03,30.3-19.75,44.15-43.56,44.17c-23.82,0.02-36.79-12.75-39.96-29.73l12.96-0.19c2.12,12.96,12.28,21,26.82,20.99
		c13.83-0.01,31.52-7.21,31.49-35.06L653.54,572.33z M653.34,545.37c-0.02-24.35-14.23-42.02-32.44-42
		c-18.39,0.02-32.21,19.47-32.19,42.06c0.02,22.42,13.88,42.02,32.26,42C639.2,587.41,653.37,569.53,653.34,545.37z"/>
	<path class="st0" d="M769.54,561.36c-0.34,13.13-17.3,36.09-43.22,36.12c-25.92,0.02-45.91-23.07-45.93-51.97
		c-0.03-29.42,20.09-52.74,45.31-52.76c25.39-0.02,44.15,22.72,44.53,48.29l0.01,6.66l-76.71,0.08
		c1.25,22.59,15.45,38.86,33.31,38.85c18.74-0.02,29.75-16.32,30.45-25.25L769.54,561.36z M757.43,538.26
		c-2.65-20.31-15.79-34.66-31.56-34.64c-16.11,0.01-29.58,14.39-32.01,34.71L757.43,538.26z"/>
	<path class="st1" d="M770.22,214.58l-0.1-104.88l-27.38-15.77l-0.03-31.62l-90.9-52.36l-27.37,15.84l-27.43-15.8l-90.8,52.54
		l0.03,31.64l-27.38,15.85l0.1,104.86l27.41,15.79l0.03,31.64l90.9,52.37l27.38-15.85l27.41,15.79l90.8-52.54l-0.03-31.66
		L770.22,214.58z M651.83,29.86l73.58,42.39l0.01,11.71l-73.56-42.38l-90.82,52.55l0.08,84.9l-10.09-5.81l-0.08-84.98L651.83,29.86z
		 M597.03,29.93l10.15,5.85l-73.56,42.56l0.1,104.84l73.62,42.41l-10.12,5.86l-73.58-42.39l-0.11-116.6L597.03,29.93z
		 M578.39,135.68l46.13-26.69l46.15,26.58l0.05,53.35l-46.11,26.68L578.44,189L578.39,135.68z M496.26,204.9l-0.08-84.96l10.08-5.83
		l0.08,84.91l90.9,52.37l73.5-42.53l0.01,11.71l-73.48,42.52L496.26,204.9z M597.29,294.72l-73.58-42.39l-0.01-11.69l73.56,42.38
		l90.82-52.55l-0.08-84.9l10.09,5.81l0.08,84.96L597.29,294.72z M652.09,294.66l-10.13-5.84l73.54-42.55l-0.1-104.86
		c-24.57-14.15-49.08-28.25-73.64-42.4l10.14-5.87l73.58,42.39l0.11,116.6L652.09,294.66z M742.77,125.57l-90.9-52.37l-73.5,42.53
		l-0.01-11.71l73.48-42.52l101.04,58.21l0.08,84.94l-10.11,5.85L742.77,125.57z"/>
	<g>
		<path class="st2" d="M109.1,422.75L34.45,319.93L34.82,423l-24.35,0.08L9.93,274.71l31.72-0.11l73.83,102.42l-0.37-102.47
			l24.15-0.28l0.53,148.36L109.1,422.75z"/>
		<path class="st2" d="M181.19,370.66c1.47,24.13,13.39,38.53,28.82,38.47c15.83-0.05,25.87-13.94,27.02-24.23l26.9,0.1
			c-1.12,19-22.41,41.62-55.44,41.74c-32.64,0.11-56.47-25.52-56.59-59.94c-0.12-34.82,24.32-60.42,56.56-60.53
			c32.64-0.11,54.68,23.75,55.98,55.99c0.2,1.19,0.22,7.12,0.23,8.11L181.19,370.66z M236.13,355.63
			c-3.03-19.18-14.15-31.4-27.21-31.36c-13.45,0.05-24.29,12.35-26.99,31.55L236.13,355.63z"/>
		<path class="st2" d="M346.45,339.22c-1.42-10.68-9.75-16.38-22.61-16.34c-12.07,0.04-19.96,5.21-19.93,14.31
			c0.04,11.08,10.73,14.01,29.53,17.11c25.14,3.87,40.41,15.49,40.48,36.65c0.08,23.54-21.04,35.29-50.12,35.39
			c-30.07,0.1-46.34-13.88-48.99-36.23l24.53-1.27c1.63,12.85,10.36,20.54,25.99,20.48c12.86-0.04,22.14-6.01,22.1-15.9
			c-0.04-10.48-9.55-16.19-28.35-19.09c-23.95-3.87-40.41-15.09-40.48-35.27c-0.07-20.77,20.06-33.11,44.79-33.19
			c25.72-0.09,43.76,10.73,47.19,32.08L346.45,339.22z"/>
		<path class="st2" d="M445.76,421.36c0,0-6.32,2.79-18.78,2.83c-20.77,0.07-33.66-7.99-33.76-37.47L393,324.42l-14.24,0.05
			l-0.05-14.64l14.24-0.05l-0.1-28.88l29.08-0.1l0.1,28.88l20.57-0.07l0.05,14.64l-20.57,0.07l0.21,61.72
			c0.05,15.43,6.01,20.35,14.91,20.32c4.55-0.02,8.5-1.02,8.5-1.02L445.76,421.36z"/>
	</g>
</g>
</svg>
